<?xml version="1.0" encoding="UTF-8"?>
<svg width="243px" height="74px" viewBox="0 0 243 74" version="1.1" xmlns="http://www.w3.org/2000/svg" xmlns:xlink="http://www.w3.org/1999/xlink">
    <!-- Generator: Sketch 57.1 (83088) - https://sketch.com -->
    <title>logo</title>
    <desc>Created with Sketch.</desc>
    <defs>
        <linearGradient x1="-14.3276743%" y1="-11.305949%" x2="-14.3277026%" y2="134.623557%" id="linearGradient-1">
            <stop stop-color="#287193" offset="0%"></stop>
            <stop stop-color="#026EDA" offset="64.6557%"></stop>
            <stop stop-color="#0967C2" offset="74.04132%"></stop>
            <stop stop-color="#056BCF" offset="100%"></stop>
        </linearGradient>
        <linearGradient x1="-14.3276954%" y1="-236.268898%" x2="-14.3276954%" y2="109.03601%" id="linearGradient-2">
            <stop stop-color="#59BAE8" offset="0%"></stop>
            <stop stop-color="#387EC3" offset="61.6506055%"></stop>
            <stop stop-color="#2F58A5" offset="83.6300658%"></stop>
            <stop stop-color="#293E90" offset="100%"></stop>
        </linearGradient>
        <linearGradient x1="-16.4106456%" y1="-23.6370196%" x2="-16.4106575%" y2="138.459164%" id="linearGradient-3">
            <stop stop-color="#146B95" offset="0%"></stop>
            <stop stop-color="#056BD0" offset="64.6557%"></stop>
            <stop stop-color="#0968C5" offset="74.04132%"></stop>
            <stop stop-color="#1E348C" offset="100%"></stop>
        </linearGradient>
        <linearGradient x1="105.481169%" y1="-5.55646907%" x2="-2.54193017%" y2="-5.55644684%" id="linearGradient-4">
            <stop stop-color="#2CC112" offset="0%"></stop>
            <stop stop-color="#12DDAB" offset="41.9452%"></stop>
            <stop stop-color="#10DEAB" offset="55.081242%"></stop>
            <stop stop-color="#2A2D7D" offset="100%"></stop>
        </linearGradient>
    </defs>
    <g id="logo" stroke="none" stroke-width="1" fill="none" fill-rule="evenodd">
        <g id="Group-13" transform="translate(4.000000, 5.000000)">
            <g id="Group" transform="translate(51.437520, 32.209404) scale(-1, 1) rotate(-180.000000) translate(-51.437520, -32.209404) translate(43.937520, 0.709404)" fill="url(#linearGradient-1)" fill-rule="nonzero">
                <polygon id="Path" points="14.011382 17.2310296 0.0205467529 0.0213482661 0.0205467529 62.7326247 14.011382 62.7326247"></polygon>
            </g>
            <g id="Group" transform="translate(51.437520, 32.839082) scale(-1, 1) rotate(-180.000000) translate(-51.437520, -32.839082) translate(43.937520, 22.839082)" fill="url(#linearGradient-2)" fill-rule="nonzero">
                <path d="M14.011382,0.0553616864 L14.011382,18.1760895 C9.51414887,19.1147444 4.79340711,19.6065158 0.0205467529,19.695294 L0.0205467529,7.25038591 C5.33263408,5.94365061 10.0734215,3.49875883 14.011382,0.0553616864 Z" id="Path"></path>
            </g>
            <g id="Group" transform="translate(16.476570, 28.559388) scale(-1, 1) rotate(-180.000000) translate(-16.476570, -28.559388) translate(-0.000000, 0.000000)"></g>
            <path d="M6.56937755,37.1128508 C12.3280116,41.8092949 18.711196,45.0078998 26.8383326,45.6940327 C23.8742124,44.8059778 21.609469,43.8224872 19.7218502,41.9981572 L19.7218502,13.9450662 C19.7218502,10.3908375 17.6765973,8.21590669 15.3011109,7.5368059 C8.76129004,5.66827414 0.876590711,12.2754426 2.95676256,20.1594411 C-3.41145658,10.5033512 1.38441204,2.82127467 9.0316625,1.42891714 C17.639683,-0.136229359 28.6052315,3.86504053 32.9531399,13.2830434 C32.9531399,28.2604304 32.9531399,43.2378175 32.9531399,58.2172138 C26.5380296,58.2172138 12.8049047,51.357894 6.56937755,37.1128508" id="Path" fill="url(#linearGradient-3)" fill-rule="nonzero" transform="translate(16.476570, 29.657826) scale(-1, 1) rotate(-180.000000) translate(-16.476570, -29.657826) "></path>
            <g id="Group" transform="translate(44.598438, 38.020338) scale(-1, 1) rotate(-180.000000) translate(-44.598438, -38.020338) translate(1.098438, 20.020338)" fill="url(#linearGradient-4)" fill-rule="nonzero">
                <path d="M37.8929928,35.7500455 C57.0694065,37.1623773 76.9212755,32.157745 86.0784352,18.2903059 C81.8410393,18.9619881 77.6046309,19.0579427 73.6545997,18.2323333 C73.6545997,18.2323333 73.5390613,7.5024098 69.5505174,0.0029578912 C65.1521577,14.810952 53.2714515,23.9376341 38.2070203,24.5663366 C23.5612923,25.1760482 11.9788135,18.5621773 9.82407152,12.1172265 C7.31678925,4.61877409 11.4593844,3.14047349 13.5134006,4.0110616 C5.2301853,1.63618519 -3.27028171,8.38299319 1.32557952,16.6530805 C7.68512965,28.1006645 23.0922261,34.6605609 37.8929928,35.7500455 Z" id="Path"></path>
            </g>
            <path d="M97.9090855,40.4464399 L97.9090855,40.4464399 C97.9090855,40.1063212 97.9411045,39.6375089 98.0051424,39.0400031 C98.0691803,38.4424973 98.1011993,38.0793977 98.1011993,37.9507041 L98.1011993,37.9507041 C98.2292751,35.5836619 98.7278561,30.9139242 99.5969422,23.9414911 L99.5969422,23.9414911 C100.296785,18.4214567 100.646707,13.9562498 100.646707,10.5458706 L100.646707,10.5458706 C100.646707,10.3528302 100.646707,10.1597899 100.646707,9.96674955 L100.646707,9.96674955 C100.646707,9.47955251 100.980619,9.17620341 101.648443,9.05670225 C102.316267,8.94179729 102.705068,8.80850753 102.814848,8.65683298 L102.814848,8.65683298 C103.066425,8.95558588 103.690795,9.22216539 104.687957,9.45657152 L104.687957,9.45657152 C105.515876,9.62663086 106.014457,10.0219039 106.1837,10.6423907 L106.1837,10.6423907 C106.522186,11.7270936 106.691429,12.9519805 106.691429,14.3170514 L106.691429,14.3170514 C106.691429,15.2776569 106.554205,16.7921043 106.279757,18.8603936 C106.005308,20.928683 105.868084,22.505179 105.868084,23.5898819 L105.868084,23.5898819 C106.398684,23.9759626 107.045925,24.2218592 107.809805,24.3275718 L107.809805,24.3275718 C108.171162,24.3919185 108.617141,24.4240919 109.147741,24.4240919 L109.147741,24.4240919 C109.422189,24.4240919 109.719508,24.4126014 110.039697,24.3896204 L110.039697,24.3896204 C111.288437,24.3068889 112.052318,24.2655231 112.33134,24.2655231 L112.33134,24.2655231 C113.410836,19.678517 114.364544,13.7402285 115.192463,6.4506577 L115.192463,6.4506577 C115.361706,4.9155274 115.903741,4.14796225 116.818569,4.14796225 L116.818569,4.14796225 C117.175351,4.10659647 117.502402,4.08591357 117.799721,4.08591357 L117.799721,4.08591357 C119.496726,4.08591357 120.473304,4.58689921 120.729456,5.58887048 L120.729456,5.58887048 C120.647122,9.46806201 120.011316,15.6292661 118.822041,24.0724827 L118.822041,24.0724827 C117.73797,32.0652719 117.195935,38.1943026 117.195935,42.4595748 L117.195935,42.4595748 C117.195935,43.8016648 117.239389,45.0908985 117.326298,46.3272759 L117.326298,46.3272759 C117.326298,46.6260288 117.198222,46.9201855 116.94207,47.209746 C116.685919,47.4993065 116.379452,47.6440867 116.022669,47.6440867 L116.022669,47.6440867 C114.810522,47.6440867 114.014623,47.5360761 113.634969,47.3200547 L113.634969,47.3200547 C111.979132,46.3594492 111.151213,44.548547 111.151213,41.8873481 L111.151213,41.8873481 C111.151213,41.3541891 111.183232,40.5314696 111.24727,39.4191895 C111.311308,38.3115057 111.343326,37.4910842 111.343326,36.9579252 L111.343326,36.9579252 C111.343326,36.0846475 111.448532,34.7517499 111.658942,32.9592325 C111.869352,31.1713113 111.974557,29.797048 111.974557,28.8364425 L111.974557,28.8364425 C111.869352,28.8364425 111.764147,28.8364425 111.658942,28.8364425 L111.658942,28.8364425 C111.087175,28.8364425 110.355313,28.7514128 109.463356,28.5813535 L109.463356,28.5813535 C108.402156,28.3699283 107.638275,28.2642158 107.171713,28.2642158 L107.171713,28.2642158 C106.599946,28.2642158 106.057911,28.3492454 105.545608,28.5193048 L105.545608,28.5193048 C104.507278,31.9710499 103.892057,37.0544454 103.699943,43.7694914 L103.699943,43.7694914 C103.022971,44.0498595 102.366582,44.1900436 101.730777,44.1900436 L101.730777,44.1900436 C100.944026,44.1900436 100.168709,43.9855127 99.4048284,43.5764511 L99.4048284,43.5764511 C98.4076665,43.043292 97.9090855,41.999955 97.9090855,40.4464399 Z M124.420785,27.3955342 L124.420785,27.3955342 C124.420785,24.1552143 125.376779,20.6919787 127.288769,17.0058275 L127.288769,17.0058275 C128.116688,15.4247353 129.113849,14.0711548 130.280254,12.9450862 L130.280254,12.9450862 C131.615903,11.5984 132.898948,10.9158645 134.129391,10.8974797 L134.129391,10.8974797 C134.829234,10.8974797 135.481048,11.157165 136.084835,11.6765354 C136.688621,12.200502 138.317013,12.8991242 140.970013,13.7724019 L140.970013,13.7724019 C143.051245,14.4756203 144.526405,15.6591414 145.395491,17.3229652 L145.395491,17.3229652 C146.923253,20.2461475 147.687134,22.7510757 147.687134,24.8377498 L147.687134,24.8377498 C147.687134,26.0327614 147.474436,27.1105699 147.049041,28.0711754 L147.049041,28.0711754 C144.48295,33.8669817 140.85566,37.3095344 136.167169,38.3988334 L136.167169,38.3988334 C135.595402,38.527527 135.021348,38.5918738 134.445006,38.5918738 L134.445006,38.5918738 C131.965824,38.5918738 129.472919,37.2382933 126.966292,34.5311324 L126.966292,34.5311324 C125.269287,32.6972492 124.420785,30.3187165 124.420785,27.3955342 Z M129.703913,26.4716984 L129.703913,26.4716984 C129.703913,28.3469473 130.138456,29.9464244 131.007542,31.2701296 L131.007542,31.2701296 C132.219689,33.0580508 133.239721,33.9520114 134.06764,33.9520114 L134.06764,33.9520114 C135.975055,33.9520114 137.82072,32.7478074 139.604633,30.3393994 L139.604633,30.3393994 C141.109524,28.3354568 141.86197,26.4487174 141.86197,24.6791809 L141.86197,24.6791809 C141.86197,24.4677558 141.852822,24.2448402 141.834525,24.0104341 L141.834525,24.0104341 C141.537206,20.8114799 140.686417,18.9017594 139.282156,18.2812726 L139.282156,18.2812726 C139.071746,18.1985411 138.881919,18.1571753 138.712676,18.1571753 L138.712676,18.1571753 C138.182076,18.1571753 137.523401,18.5938141 136.736649,19.4670918 L136.736649,19.4670918 C135.867563,20.4690631 135.199739,21.0665689 134.733177,21.2596093 L134.733177,21.2596093 C134.435858,21.3883028 134.001315,21.2550131 133.429548,20.85974 C132.857781,20.4644669 132.487276,20.2668304 132.318033,20.2668304 L132.318033,20.2668304 C132.189957,20.2668304 132.082464,20.3081962 131.995556,20.3909277 L131.995556,20.3909277 C130.467794,21.6916519 129.703913,23.7185755 129.703913,26.4716984 Z M148.071361,9.26353118 L148.071361,9.26353118 C147.943285,8.73037216 148.007323,8.22479032 148.263475,7.74678568 C148.515052,7.26418483 148.885557,7.00220152 149.37499,6.96083573 L149.37499,6.96083573 C149.713476,6.87810416 150.063398,6.83673837 150.424755,6.83673837 L150.424755,6.83673837 C151.632327,6.83673837 152.565451,7.3790898 153.224127,8.46379264 L153.224127,8.46379264 C153.92397,12.131559 154.751888,19.2740515 155.707883,29.89127 L155.707883,29.89127 C156.046369,29.1466859 156.444319,27.760932 156.901733,25.7340085 C157.359147,23.707085 157.798264,22.2363014 158.219084,21.3216579 L158.219084,21.3216579 C158.603312,19.6578341 158.976104,17.9940102 159.337461,16.3301864 L159.337461,16.3301864 C159.868061,14.3262438 160.96128,13.3242726 162.617117,13.3242726 L162.617117,13.3242726 C163.037938,13.3242726 163.513648,13.3886193 164.044248,13.5173129 L164.044248,13.5173129 C164.089989,13.7747 164.286677,13.9240765 164.634312,13.9654422 C164.98652,14.006808 165.183208,14.0711548 165.224376,14.1584826 L165.224376,14.1584826 C166.18037,16.2911187 166.891649,19.1591465 167.358211,22.7625662 L167.358211,22.7625662 C168.099221,27.8367693 168.554347,30.7576534 168.72359,31.5252186 L168.72359,31.5252186 C169.423433,27.6414309 170.146147,23.7806241 170.891731,19.9427984 L170.891731,19.9427984 C171.801985,15.4477163 172.96839,11.782248 174.390946,8.94639348 L174.390946,8.94639348 C174.688265,8.37186867 175.32407,8.08460627 176.298362,8.08460627 L176.298362,8.08460627 C176.979908,8.08460627 177.585981,8.21100173 178.116581,8.46379264 L178.116581,8.46379264 C179.113743,8.95558588 179.612324,9.65880425 179.612324,10.5734478 L179.612324,10.5734478 C179.612324,11.1939345 179.356172,12.0258465 178.843869,13.0691835 L178.843869,13.0691835 C178.189767,14.4756203 177.839846,15.2546759 177.794105,15.4063505 L177.794105,15.4063505 C176.755775,18.6466704 175.770049,23.5600066 174.836925,30.146359 C173.903801,36.7373077 172.959242,41.5885952 172.003247,44.7002216 L172.003247,44.7002216 C171.747095,45.5734993 171.003798,46.0101382 169.773355,46.0101382 L169.773355,46.0101382 C169.201588,46.0101382 168.703007,45.9044256 168.277612,45.6930005 L168.277612,45.6930005 C166.667516,44.8610885 165.512546,43.2409286 164.812703,40.8325206 L164.812703,40.8325206 C164.766962,40.6164992 164.353002,38.4310068 163.570825,34.2760434 L163.570825,34.2760434 C163.186597,32.0974453 162.825241,29.7625765 162.486754,27.2714369 L162.486754,27.2714369 C161.87382,28.4848333 161.068772,31.5229205 160.07161,36.3856985 L160.07161,36.3856985 C159.19795,40.5866239 158.177917,43.250121 157.011512,44.3761896 L157.011512,44.3761896 C156.673026,44.7209045 156.057805,44.7645684 155.165848,44.5071813 L155.165848,44.5071813 C153.871367,44.3371219 153.002281,43.5488739 152.55859,42.1424371 L152.55859,42.1424371 C152.302438,40.9244445 152.046286,39.6972595 151.790135,38.4608821 L151.790135,38.4608821 C151.007957,35.3262748 150.388162,30.4382177 149.930748,23.7967108 C149.473334,17.155204 148.853539,12.3108108 148.071361,9.26353118 Z M181.739298,7.89156593 L181.739298,7.89156593 C181.739298,7.6755446 181.782752,7.45033087 181.869661,7.21592475 L181.869661,7.21592475 C182.080071,6.68276573 182.558068,6.38401282 183.303653,6.31966604 L183.303653,6.31966604 C183.87542,6.23693447 184.438039,6.17488579 184.991509,6.13352 L184.991509,6.13352 C188.637097,6.91946995 192.46565,8.96477828 196.477168,12.269445 L196.477168,12.269445 C197.515497,13.1427227 198.363999,14.0596643 199.022675,15.0202698 L199.022675,15.0202698 C201.103908,18.1135114 202.144524,21.0137126 202.144524,23.7208736 L202.144524,23.7208736 C202.144524,25.1273103 201.85864,26.4602079 201.286873,27.7195662 L201.286873,27.7195662 C200.861478,28.7215375 200.447519,29.7327012 200.044995,30.7530573 L200.044995,30.7530573 C199.514395,31.9250879 198.951776,32.8650105 198.357138,33.572825 L198.357138,33.572825 C197.02149,35.2780147 195.674407,36.9510309 194.315888,38.5918738 L194.315888,38.5918738 C192.701218,40.5958163 191.246642,41.9907626 189.952161,42.7767125 L189.952161,42.7767125 C189.526766,43.3098715 189.048769,43.8591173 188.518169,44.4244497 C187.992143,44.9897821 187.472979,45.2724483 186.960675,45.2724483 L186.960675,45.2724483 C186.709098,45.2724483 186.407205,45.2081015 186.054996,45.079408 C185.702788,44.9553106 185.320847,44.8082323 184.909175,44.6381729 C184.497503,44.4635174 184.204758,44.1739569 184.030941,43.7694914 L184.030941,43.7694914 C183.907439,41.9356082 183.834253,39.9753295 183.811382,37.8886554 L183.811382,37.8886554 C183.811382,35.7560193 183.900578,32.5685557 184.078969,28.3262644 C184.261935,24.0839732 184.353417,20.8965096 184.353417,18.7638735 L184.353417,18.7638735 C184.353417,15.928019 184.245925,13.3265707 184.030941,10.9595284 L184.030941,10.9595284 C183.989773,10.9181626 183.502628,10.417177 182.569504,9.45657152 L182.569504,9.45657152 C181.997737,8.88204671 181.721001,8.36037818 181.739298,7.89156593 Z M189.348375,36.6407875 L189.348375,36.6407875 C194.25185,31.7136627 196.712736,27.0232422 196.731032,22.5695258 L196.731032,22.5695258 C196.731032,21.949039 196.689865,21.3308503 196.607531,20.7149597 L196.607531,20.7149597 C196.223303,17.9618368 193.899642,15.5419383 189.636546,13.4552642 L189.636546,13.4552642 C189.421561,18.8282203 189.304921,24.4355824 189.286624,30.2773507 L189.286624,30.2773507 C189.304921,32.3640248 189.325504,34.4851704 189.348375,36.6407875 Z M204.401861,6.51270638 L204.401861,6.51270638 C204.401861,6.02550934 204.671735,5.57278379 205.211483,5.15452973 C205.755805,4.74087186 206.293266,4.53404293 206.823866,4.53404293 L206.823866,4.53404293 C206.906201,4.53404293 207.722684,4.77764145 209.273317,5.26483849 L209.273317,5.26483849 C210.352813,6.92866234 211.487199,9.07278894 212.676475,11.6972183 L212.676475,11.6972183 C213.673637,13.912586 214.650215,16.1394441 215.60621,18.3777928 L215.60621,18.3777928 C216.475296,15.7579597 217.344382,13.1565113 218.213468,10.5734478 L218.213468,10.5734478 C219.21063,7.56753394 220.315284,5.07409625 221.52743,3.0931347 L221.52743,3.0931347 C221.843046,2.4956289 222.426248,2.19687599 223.277038,2.19687599 L223.277038,2.19687599 C223.318205,2.19687599 223.350224,2.19687599 223.373095,2.19687599 L223.373095,2.19687599 C224.580667,2.19687599 225.598412,2.61283196 226.426331,3.44474388 L226.426331,3.44474388 C225.218759,8.36727247 222.979719,14.7835656 219.709211,22.6936232 L219.709211,22.6936232 C215.889806,31.904405 213.440356,38.2586494 212.360859,41.7563565 L212.360859,41.7563565 C212.145875,42.4595748 212.029234,43.3328525 212.010938,44.3761896 L212.010938,44.3761896 C212.029234,45.102389 212.038383,45.6952986 212.038383,46.1549184 C212.038383,46.6145383 212.029234,46.9385703 212.010938,47.1270144 L212.010938,47.1270144 C211.882862,48.6437599 211.107546,49.4021326 209.684989,49.4021326 L209.684989,49.4021326 C209.666692,49.4021326 209.646109,49.4021326 209.623238,49.4021326 L209.623238,49.4021326 C209.53633,49.4205174 209.440273,49.4297098 209.335068,49.4297098 L209.335068,49.4297098 C208.676392,49.4297098 207.976549,49.1746208 207.235539,48.6644428 L207.235539,48.6644428 C206.43049,48.089918 206.027966,47.4924122 206.027966,46.8719254 L206.027966,46.8719254 C206.027966,43.9717241 206.833014,40.2947653 208.443111,35.841049 L208.443111,35.841049 C209.783333,32.3433419 211.130416,28.8571254 212.484361,25.3823993 L212.484361,25.3823993 C209.410541,17.0908572 206.780412,11.0146828 204.593974,7.15387607 L204.593974,7.15387607 C204.465898,6.94245094 204.401861,6.72872771 204.401861,6.51270638 Z" id="Shape" fill="#0868C7" fill-rule="nonzero"></path>
        </g>
    </g>
</svg>